# xmcd
#
# Track frame offsets: 
#        150
#        9335
#        25530
#        37162
#        48837
#        62822
#        72507
#        86525
#        103702
#        123617
#        144407
#        167772
#        191975
#        212537
#        251105
#        272085
#        291625
#        301832
#        310977
#
# Disc length: 4216 seconds
#
# Revision: 0
# Processed by: cddbd v1.5.2PL0 Copyright (c) Steve Scherf et al.
# Submitted via: ExactAudioCopy v1.0b3
#
DISCID=1c107613
DTITLE=Sherwin Linton and Friends - It Happened In America
DYEAR=2003
DGENRE=Country
TTITLE0=Forever On The Stage
TTITLE1=You Can't Get There From Here
TTITLE2=Jesus In A Bathtub
TTITLE3=Welfare Darlin'
TTITLE4=Rock-A-Billy (Is Even Better The Second Time Around)
TTITLE5=When I've Got More Time
TTITLE6=She Was Kissed By Elvis
TTITLE7=Road Rage Rudy
TTITLE8=If You Can Remember It You Weren't There
TTITLE9=I'm Gonna Turn A New Leaf
TTITLE10=Sick Sober And Sorry
TTITLE11=There's Always Next Year
TTITLE12=Blame It All On El Nino
TTITLE13=We Need A Lot More Guitars
TTITLE14=The Gospel Truth
TTITLE15=Sentimental Melody
TTITLE16=Thank You For Serving
TTITLE17=Sherwin Rocks On More Guitar
TTITLE18=Forever On The Stage (Reprise)
EXTD=
EXTT0=
EXTT1=
EXTT2=
EXTT3=
EXTT4=
EXTT5=
EXTT6=
EXTT7=
EXTT8=
EXTT9=
EXTT10=
EXTT11=
EXTT12=
EXTT13=
EXTT14=
EXTT15=
EXTT16=
EXTT17=
EXTT18=
PLAYORDER=
